<?xml version="1.0" standalone="no"?>
<!DOCTYPE svg PUBLIC "-//W3C//DTD SVG 20010904//EN"
 "http://www.w3.org/TR/2001/REC-SVG-20010904/DTD/svg10.dtd">
<svg version="1.0" xmlns="http://www.w3.org/2000/svg"
 width="454.000000pt" height="454.000000pt" viewBox="0 0 454.000000 454.000000"
 preserveAspectRatio="xMidYMid meet">
<metadata>
Created by potrace 1.14, written by Peter Selinger 2001-2017
</metadata>
<g transform="translate(0.000000,454.000000) scale(0.100000,-0.100000)"
fill="#000000" stroke="none">
<path d="M2300 4261 c0 -4 -6 -8 -12 -8 -113 -7 -210 -35 -246 -70 -7 -7 -20
-13 -28 -13 -8 0 -14 -7 -14 -16 0 -8 -4 -12 -10 -9 -5 3 -10 2 -10 -3 0 -5
-16 -26 -35 -47 -31 -33 -66 -86 -65 -100 0 -3 0 -6 -1 -7 0 -2 -2 -11 -4 -21
-2 -10 -16 -48 -31 -85 -14 -37 -28 -79 -30 -95 -7 -52 -30 -81 -81 -100 -26
-10 -64 -27 -84 -38 -20 -10 -39 -16 -43 -12 -3 3 -6 2 -6 -4 0 -6 -12 -16
-27 -22 -27 -10 -62 -30 -73 -41 -3 -3 -17 -11 -32 -19 -16 -8 -28 -18 -28
-23 0 -4 -5 -8 -12 -8 -13 0 -158 -148 -158 -161 0 -4 -13 -22 -30 -40 -16
-18 -27 -36 -24 -40 2 -4 1 -9 -3 -11 -15 -6 -61 -108 -49 -108 8 0 8 -2 0 -8
-12 -7 -43 -113 -50 -172 -3 -19 -7 -46 -10 -60 -2 -14 -7 -83 -10 -155 -3
-71 -7 -146 -7 -165 -2 -31 -5 -35 -40 -42 -59 -12 -70 -30 -72 -112 0 -39 2
-75 4 -81 7 -14 12 -54 14 -107 1 -27 5 -48 8 -48 6 0 9 -25 10 -72 0 -10 3
-18 7 -18 4 0 8 -19 9 -43 3 -39 9 -82 13 -82 1 0 3 -13 5 -30 2 -16 6 -43 10
-60 5 -26 15 -106 18 -142 0 -7 3 -13 6 -13 3 0 7 -19 7 -43 1 -23 4 -69 8
-102 4 -33 9 -206 11 -384 3 -207 8 -328 15 -335 5 -5 10 -18 10 -29 0 -10 4
-16 9 -12 5 3 12 1 15 -4 11 -17 84 -6 115 17 23 17 36 40 52 92 26 87 27 94
28 159 1 60 6 59 42 -9 13 -25 29 -50 34 -56 6 -6 17 -21 25 -34 8 -12 24 -32
35 -45 45 -51 70 -86 70 -98 1 -6 -8 -22 -20 -34 -11 -12 -18 -23 -16 -25 3
-2 -24 -33 -60 -70 -82 -86 -87 -92 -101 -123 -6 -14 -14 -25 -18 -25 -3 0 -7
-16 -8 -36 -5 -63 71 -119 249 -184 43 -16 79 -27 79 -24 0 4 6 1 14 -5 8 -6
18 -11 22 -9 5 1 32 -3 59 -10 28 -6 61 -14 75 -16 14 -3 34 -7 45 -9 121 -27
669 -29 855 -3 31 5 95 15 134 22 15 2 44 11 62 19 19 8 34 11 34 8 0 -3 7 1
16 8 9 7 22 14 30 15 21 3 73 43 86 67 17 31 16 55 -4 105 -10 23 -15 42 -12
42 3 0 -4 13 -16 30 -12 16 -18 30 -13 30 4 0 3 4 -3 8 -6 4 -24 32 -39 62
-15 30 -35 64 -44 74 -13 16 -13 18 -1 11 12 -6 12 -5 3 5 -14 15 -6 38 24 66
13 12 23 27 23 34 0 7 3 11 6 7 7 -6 30 23 81 100 16 23 33 39 38 35 10 -7 17
-48 19 -102 1 -14 4 -27 8 -30 4 -3 10 -21 13 -40 8 -43 29 -67 69 -79 39 -10
96 -3 96 13 0 7 5 17 12 24 17 17 19 30 23 217 3 159 11 291 20 346 2 13 6 47
10 74 3 28 10 69 16 92 5 24 9 46 8 50 -1 5 -1 10 1 13 6 16 13 59 14 87 0 18
4 33 7 33 3 0 6 6 7 13 1 6 4 28 7 47 3 19 7 49 9 66 2 17 6 36 10 43 4 6 9
25 11 43 2 18 7 47 10 63 2 17 7 41 9 55 3 14 5 25 6 25 2 0 9 37 15 80 5 42
12 80 15 80 1 0 3 16 5 35 2 19 4 35 5 35 1 0 3 14 4 32 3 38 -22 73 -52 76
-12 1 -25 9 -28 19 -8 27 -12 98 -5 94 3 -2 6 16 6 40 0 24 -3 44 -6 44 -4 0
-3 17 1 37 5 20 5 43 1 51 -5 8 -5 30 -1 48 5 21 4 34 -2 34 -6 0 -5 6 2 15 9
11 9 15 1 15 -7 0 -10 3 -8 8 10 16 -16 183 -40 252 -8 25 -17 56 -20 70 -2
13 -7 27 -11 30 -4 3 -8 13 -10 23 -7 38 -84 161 -124 198 -10 9 -18 21 -18
28 0 6 -7 11 -17 11 -9 0 -14 3 -11 6 8 7 -65 74 -81 74 -6 0 -11 5 -11 10 0
6 -8 10 -17 10 -9 0 -13 3 -10 7 4 3 -3 11 -16 18 -105 56 -128 67 -141 69 -7
1 -20 7 -27 13 -8 5 -27 13 -42 17 -27 6 -52 46 -62 96 -8 40 -29 100 -35 100
-4 0 -8 15 -9 33 -3 54 -4 57 -11 57 -4 0 -10 12 -13 28 -6 28 -18 45 -93 124
-24 26 -44 50 -44 55 0 14 -98 64 -135 68 -20 3 -44 9 -53 13 -9 5 -30 8 -47
7 -16 0 -40 2 -52 7 -13 4 -23 4 -23 -1z"/>
</g>
</svg>
